<?xml version="1.0" standalone="no"?><!DOCTYPE svg PUBLIC "-//W3C//DTD SVG 1.1//EN" "http://www.w3.org/Graphics/SVG/1.1/DTD/svg11.dtd"><svg t="1729063667630" class="icon" viewBox="0 0 1024 1024" version="1.1" xmlns="http://www.w3.org/2000/svg" p-id="6133" xmlns:xlink="http://www.w3.org/1999/xlink" width="200" height="200"><path d="M350.4 728.89c-2 1.54-3.83 3.27-5.45 5.23-10.45 12.63-22.76 24.02-32.42 37.27-11.28 15.46-16.98 38.42-4.53 52.95 11.88 13.86 33.68 12.8 51.11 7.37 25.09-7.81 48.08-22.28 65.98-41.52a349.91 349.91 0 0 0 89.84 27.53c-6.07 11.75-11.3 24.81-9.31 37.89 2.45 16.08 15.84 29.01 31.18 34.41 15.34 5.4 32.27 4.3 48.14 0.77 39.32-8.74 75.12-32.44 98.54-65.22 2.83-3.96 5.54-8.1 9.31-11.16 5.61-4.55 12.94-6.22 19.91-8.12 36.3-9.93 69.79-29.95 95.74-57.22 12.21-12.84 22.83-27.28 36.44-38.63 8.16-6.81 17.26-12.38 26.06-18.36 14.23-9.66 27.98-20.69 37.31-35.14 9.33-14.45 13.75-32.89 8.26-49.2s-22.43-29.05-39.45-26.49c-12.44 1.87-22.45 10.85-31.66 19.42-15.27-6.35-25.18-22.68-41.09-27.22-12.29-3.51-25.3 0.82-37.34 5.11-71.77 25.59-143.55 51.18-215.32 76.76-35.89 12.79-71.77 25.59-107.66 38.38-17.94 6.4-35.89 12.79-53.83 19.19-13.13 4.67-28.88 7.58-39.76 16zM632.92 254.81c30.76-25.52 81.97-44.09 121.22-49.77 18.97-2.74 41-1.35 53.4 13.27 9.85 11.61 10.71 28.22 10.05 43.43-2.19 50.28-15.67 99.31-29.08 147.82 0-7.22-30.61-30.17-36.35-35.83-13.73-13.54-27.46-27.07-41.19-40.61-24.31-23.97-60.29-49.49-78.05-78.31zM205.14 429.26a751.1 751.1 0 0 1-29.44-123.95c-2.93-19.61-5.08-39.51-3.15-59.24 2.06-21.06 12.74-45.85 36.58-48.56 7.81-0.89 15.7 0.49 23.38 2.13 47.39 10.13 92.18 30.64 132.97 56.81-76.33 28.54-137.6 94.57-160.34 172.81z" fill="#F7931E" p-id="6134"></path><path d="M362.37 726.2a135.28 32.1 0 1 0 270.56 0 135.28 32.1 0 1 0-270.56 0Z" fill="#FFFFFF" p-id="6135"></path><path d="M442.46 754.17a32.94 30.73 0 1 0 65.88 0 32.94 30.73 0 1 0-65.88 0Z" fill="#603813" p-id="6136"></path><path d="M800.75 526.34c0.76-1.78 1.6-3.54 2.5-5.26 4.12-7.86 9.69-14.92 13.56-22.91 5.48-11.31 7.32-23.99 9.09-36.44 5.01-35.2-0.53-98.76 44.81-108.03 12.83-2.64 26.23-0.31 38.64 3.88 8.2 2.76 16.38 6.52 22.14 12.98 10.83 12.16 10.42 30.47 7.77 46.53-11.34 68.78-53.81 131.8-113.3 168.14-14.84-5.7-26.31-10.68-35.02-15.06-57.19-28.78 4.6-31.7 9.81-43.83z" fill="#F7931E" p-id="6137"></path><path d="M803.84 485.22c-15.04 171.73-64.12 236.4-305.96 254.28S191.93 625.65 191.93 485.22s136.98-254.28 305.96-254.28 297.12 99.53 305.95 254.28z" fill="#FBB03B" p-id="6138"></path><path d="M744.23 600.27l75.64 34.87c2.23 1.03 3.21 3.69 2.19 5.93-1.03 2.23-3.69 3.21-5.93 2.19l-75.64-34.87c-2.23-1.03-3.21-3.69-2.19-5.93 1.04-2.24 3.7-3.22 5.93-2.19zM723.54 644.72l60.73 60.73a4.478 4.478 0 0 0 6.32 0 4.478 4.478 0 0 0 0-6.32l-60.73-60.73a4.478 4.478 0 0 0-6.32 0 4.478 4.478 0 0 0 0 6.32zM160.33 652.43l77.5-37.02a4.47 4.47 0 0 0 2.1-5.95 4.47 4.47 0 0 0-5.95-2.1l-77.5 37.02a4.47 4.47 0 0 0-2.1 5.95c1.05 2.21 3.73 3.15 5.95 2.1zM217.65 707.95l54.5-66.38a4.482 4.482 0 0 0-0.62-6.29 4.482 4.482 0 0 0-6.29 0.62l-54.5 66.38a4.482 4.482 0 0 0 0.62 6.29c1.9 1.55 4.73 1.28 6.29-0.62z" p-id="6139"></path><path d="M320.06 559.89m-32.26 0a32.26 32.26 0 1 0 64.52 0 32.26 32.26 0 1 0-64.52 0Z" p-id="6140"></path><path d="M592.99 572.14m-32.26 0a32.26 32.26 0 1 0 64.52 0 32.26 32.26 0 1 0-64.52 0Z" p-id="6141"></path><path d="M479.93 612.21c6.78-0.53 13.43-2.62 19.12-6.32 1.17-0.76 2.32-1.6 3.66-2.01 1.33-0.41 2.93-0.31 3.94 0.65 1.21 1.15 1.19 3.17 0.37 4.62-0.82 1.45-2.24 2.44-3.67 3.3-7.86 4.73-17.13 6.9-26.31 6.86-9.18-0.04-18.27-2.24-26.75-5.75-0.73-0.3-1.48-0.62-2.27-0.64-1.19-0.03-2.27 0.61-3.31 1.19-9.43 5.25-20.94 6.36-31.33 3.53-4.84-1.32-9.44-3.48-13.48-6.48-1.34-1-2.67-2.14-3.27-3.7-0.58-1.5-0.17-3.99 1.44-4.75 1.92-0.91 4.44 1.61 5.69 2.71 5.85 5.18 13.88 7.6 21.69 7.25s15.37-3.35 21.76-7.85c0.45-0.32 0.94-0.66 1.5-0.67 0.5-0.01 0.97 0.27 1.4 0.53 7.38 4.41 15.79 7.22 24.38 7.61 1.81 0.09 3.63 0.07 5.44-0.08z" p-id="6142"></path><path d="M478.77 617.27c-0.01 0.02-0.03 0.04-0.04 0.06-0.2 0.35-0.23 0.79-0.25 1.2-0.43 7.17-1.98 14.32-5.13 20.61s-7.96 11.67-13.91 14.61c-5.95 2.94-13.04 3.27-18.96 0.27-5.15-2.61-9.1-7.47-12.1-12.77-4.31-7.62-6.94-16.53-6.62-25.5 0.03-0.8-5.43-1.32-6.04-1.3-2.71 0.09-2.02 1.92-1.78 4.41 0.77 7.99 2.72 15.84 5.75 23.16 2.35 5.68 5.43 11.14 9.84 15.04 4.09 3.62 9.15 5.73 14.3 6.83 5.83 1.24 11.98 1.2 17.56-1.01 8.61-3.42 14.99-11.68 19.12-20.67 3.74-8.16 5.95-17.18 6.44-26.31-2.39-0.57-4.92-0.34-7.19 0.66-0.37 0.15-0.76 0.35-0.99 0.71z" p-id="6143"></path></svg>